<?xml version="1.0" encoding="iso-8859-1"?>
<!-- Generator: Adobe Illustrator 19.0.0, SVG Export Plug-In . SVG Version: 6.00 Build 0)  -->
<svg version="1.1" id="Capa_1" xmlns="http://www.w3.org/2000/svg" xmlns:xlink="http://www.w3.org/1999/xlink" x="0px" y="0px"
	 viewBox="0 0 511.272 511.272" style="enable-background:new 0 0 511.272 511.272;" xml:space="preserve">
<g>
	<g>
		<g>
			<path d="M453.374,151.306l28.272-14.96c-5.317-10.048-11.293-19.733-17.888-28.992l-26.064,18.576
				C443.48,134.03,448.718,142.507,453.374,151.306z"/>
			<path d="M418.798,102.842l23.344-21.872c-7.778-8.293-16.089-16.07-24.88-23.28l-20.288,24.752
				C404.686,88.759,411.976,95.573,418.798,102.842z"/>
			<path d="M495.582,167.514h-0.032l-30.016,11.024c42.755,116.164-16.756,244.994-132.92,287.748
				C216.45,509.04,87.62,449.53,44.866,333.365S61.622,88.372,177.786,45.617c64.533-23.751,136.397-16.564,194.948,19.496
				l16.816-27.2C269.306-36.036,111.88,1.494,37.931,121.739s-36.419,277.67,83.826,351.619s277.67,36.419,351.619-83.826
				C514.395,322.835,522.578,241.015,495.582,167.514z"/>
			<path d="M271.198,415.85v-32h8c39.596,0.176,71.838-31.781,72.014-71.377c0.098-22.072-9.976-42.959-27.31-56.623
				c17.166-13.524,27.218-34.146,27.296-56c-0.044-39.746-32.254-71.956-72-72h-8v-32h-32v32h-80v256h80v32H271.198z
				 M271.198,159.85h8c22.091,0,40,17.909,40,40s-17.909,40-40,40h-8V159.85z M271.198,271.85h8c22.091,0,40,17.909,40,40
				c0,22.091-17.909,40-40,40h-8V271.85z M191.198,159.85h48v80h-48V159.85z M191.198,351.85v-80h48v80H191.198z"/>
		</g>
	</g>
</g>
<g>
</g>
<g>
</g>
<g>
</g>
<g>
</g>
<g>
</g>
<g>
</g>
<g>
</g>
<g>
</g>
<g>
</g>
<g>
</g>
<g>
</g>
<g>
</g>
<g>
</g>
<g>
</g>
<g>
</g>
</svg>
